HIERARCHY
ROOT hip
{
  OFFSET 0 0 0
  CHANNELS 6 Xposition Yposition Zposition Zrotation Yrotation Xrotation
  JOINT abdomen
  {
    OFFSET 0 20.6881 -0.73152
    CHANNELS 3 Zrotation Xrotation Yrotation
    JOINT chest
    {
      OFFSET 0 11.7043 -0.48768
      CHANNELS 3 Zrotation Xrotation Yrotation
      JOINT neck
      {
        OFFSET 0 22.1894 -2.19456
        CHANNELS 3 Zrotation Xrotation Yrotation
        JOINT head
        {
          OFFSET -0.24384 7.07133 1.2192
          CHANNELS 3 Zrotation Xrotation Yrotation
          JOINT leftEye
          {
            OFFSET 4.14528 8.04674 8.04672
            CHANNELS 3 Zrotation Xrotation Yrotation
            End Site
            {
              OFFSET 1 0 0
            }
          }
          JOINT rightEye
          {
            OFFSET -3.6576 8.04674 8.04672
            CHANNELS 3 Zrotation Xrotation Yrotation
            End Site
            {
              OFFSET 1 0 0
            }
          }
        }
      }
      JOINT rCollar
      {
        OFFSET -2.68224 19.2634 -4.8768
        CHANNELS 3 Zrotation Xrotation Yrotation
        JOINT rShldr
        {
          OFFSET -8.77824 -1.95073 1.46304
          CHANNELS 3 Zrotation Xrotation Yrotation
          JOINT rForeArm
          {
            OFFSET -28.1742 -1.7115 0.48768
            CHANNELS 3 Zrotation Xrotation Yrotation
            JOINT rHand
            {
              OFFSET -22.5879 0.773209 7.07136
              CHANNELS 3 Zrotation Xrotation Yrotation
              JOINT rThumb1
              {
                OFFSET -1.2192 -0.487915 3.41376
                CHANNELS 3 Zrotation Xrotation Yrotation
                JOINT rThumb2
                {
                  OFFSET -3.37035 -0.52449 3.41376
                  CHANNELS 3 Zrotation Xrotation Yrotation
                  End Site
                  {
                    OFFSET -1.78271 -1.18214 1.43049
                  }
                }
              }
              JOINT rIndex1
              {
                OFFSET -7.75947 0.938293 5.60832
                CHANNELS 3 Zrotation Xrotation Yrotation
                JOINT rIndex2
                {
                  OFFSET -2.54057 -0.884171 1.56538
                  CHANNELS 3 Zrotation Xrotation Yrotation
                  End Site
                  {
                    OFFSET -1.62519 -0.234802 1.16502
                  }
                }
              }
              JOINT rMid1
              {
                OFFSET -8.24714 1.18213 3.41376
                CHANNELS 3 Zrotation Xrotation Yrotation
                JOINT rMid2
                {
                  OFFSET -3.10165 -0.590103 1.0647
                  CHANNELS 3 Zrotation Xrotation Yrotation
                  End Site
                  {
                    OFFSET -2.48547 -0.328903 0.83742
                  }
                }
              }
              JOINT rRing1
              {
                OFFSET -8.82822 0.546677 1.51678
                CHANNELS 3 Zrotation Xrotation Yrotation
                JOINT rRing2
                {
                  OFFSET -2.60934 -0.819778 -0.0198488
                  CHANNELS 3 Zrotation Xrotation Yrotation
                  End Site
                  {
                    OFFSET -2.33842 -0.294052 0.168128
                  }
                }
              }
              JOINT rPinky1
              {
                OFFSET -8.27202 -0.0477905 -0.4584
                CHANNELS 3 Zrotation Xrotation Yrotation
                JOINT rPinky2
                {
                  OFFSET -1.82734 -0.647385 -0.700984
                  CHANNELS 3 Zrotation Xrotation Yrotation
                  End Site
                  {
                    OFFSET -1.69225 -0.51767 -0.607171
                  }
                }
              }
            }
          }
        }
      }
      JOINT lCollar
      {
        OFFSET 2.68224 19.2634 -4.8768
        CHANNELS 3 Zrotation Xrotation Yrotation
        JOINT lShldr
        {
          OFFSET 8.77824 -1.95073 1.46304
          CHANNELS 3 Zrotation Xrotation Yrotation
          JOINT lForeArm
          {
            OFFSET 28.1742 -1.7115 0.48768
            CHANNELS 3 Zrotation Xrotation Yrotation
            JOINT lHand
            {
              OFFSET 22.5879 0.773209 7.07136
              CHANNELS 3 Zrotation Xrotation Yrotation
              JOINT lThumb1
              {
                OFFSET 1.2192 -0.487915 3.41376
                CHANNELS 3 Zrotation Xrotation Yrotation
                JOINT lThumb2
                {
                  OFFSET 3.37035 -0.52449 3.41376
                  CHANNELS 3 Zrotation Xrotation Yrotation
                  End Site
                  {
                    OFFSET 1.78271 -1.18214 1.43049
                  }
                }
              }
              JOINT lIndex1
              {
                OFFSET 7.75947 0.938293 5.60832
                CHANNELS 3 Zrotation Xrotation Yrotation
                JOINT lIndex2
                {
                  OFFSET 2.54057 -0.884171 1.56538
                  CHANNELS 3 Zrotation Xrotation Yrotation
                  End Site
                  {
                    OFFSET 1.62519 -0.234802 1.16502
                  }
                }
              }
              JOINT lMid1
              {
                OFFSET 8.24714 1.18213 3.41376
                CHANNELS 3 Zrotation Xrotation Yrotation
                JOINT lMid2
                {
                  OFFSET 3.10165 -0.590103 1.0647
                  CHANNELS 3 Zrotation Xrotation Yrotation
                  End Site
                  {
                    OFFSET 2.48547 -0.328903 0.83742
                  }
                }
              }
              JOINT lRing1
              {
                OFFSET 8.82822 0.546677 1.51678
                CHANNELS 3 Zrotation Xrotation Yrotation
                JOINT lRing2
                {
                  OFFSET 2.60934 -0.819778 -0.0198488
                  CHANNELS 3 Zrotation Xrotation Yrotation
                  End Site
                  {
                    OFFSET 2.33842 -0.294052 0.168128
                  }
                }
              }
              JOINT lPinky1
              {
                OFFSET 8.27202 -0.0477905 -0.4584
                CHANNELS 3 Zrotation Xrotation Yrotation
                JOINT lPinky2
                {
                  OFFSET 1.82734 -0.647385 -0.700984
                  CHANNELS 3 Zrotation Xrotation Yrotation
                  End Site
                  {
                    OFFSET 1.69225 -0.51767 -0.607171
                  }
                }
              }
            }
          }
        }
      }
    }
  }
  JOINT rButtock
  {
    OFFSET -8.77824 4.35084 1.2192
    CHANNELS 3 Zrotation Xrotation Yrotation
    JOINT rThigh
    {
      OFFSET 0 -1.70687 -2.19456
      CHANNELS 3 Zrotation Xrotation Yrotation
      JOINT rShin
      {
        OFFSET 0 -36.8199 0.73152
        CHANNELS 3 Zrotation Xrotation Yrotation
        JOINT rFoot
        {
          OFFSET 0.73152 -45.1104 -5.12064
          CHANNELS 3 Zrotation Xrotation Yrotation
          End Site
          {
            OFFSET -1.1221 -3.69964 12.103
          }
        }
      }
    }
  }
  JOINT lButtock
  {
    OFFSET 8.77824 4.35084 1.2192
    CHANNELS 3 Zrotation Xrotation Yrotation
    JOINT lThigh
    {
      OFFSET 0 -1.70687 -2.19456
      CHANNELS 3 Zrotation Xrotation Yrotation
      JOINT lShin
      {
        OFFSET 0 -36.8199 0.73152
        CHANNELS 3 Zrotation Xrotation Yrotation
        JOINT lFoot
        {
          OFFSET -0.73152 -45.1104 -5.12064
          CHANNELS 3 Zrotation Xrotation Yrotation
          End Site
          {
            OFFSET 1.1221 -3.69964 12.103
          }
        }
      }
    }
  }
}
MOTION
Frames:	5
Frame Time:	0.03333
0.0 0.0 0.0 0.0 0.0 0.0 0.0 0.0 0.0 0.0 0.0 0.0 0.0 0.0 0.0 0.0 0.0 0.0 0.0 0.0 0.0 0.0 0.0 0.0 0.0 0.0 0.0 0.0 0.0 0.0 0.0 0.0 0.0 0.0 0.0 0.0 0.0 0.0 0.0 0.0 0.0 0.0 0.0 0.0 0.0 0.0 0.0 0.0 0.0 0.0 0.0 0.0 0.0 0.0 0.0 0.0 0.0 0.0 0.0 0.0 0.0 0.0 0.0 0.0 0.0 0.0 0.0 0.0 0.0 0.0 0.0 0.0 0.0 0.0 0.0 0.0 0.0 0.0 0.0 0.0 0.0 0.0 0.0 0.0 0.0 0.0 0.0 0.0 0.0 0.0 0.0 0.0 0.0 0.0 0.0 0.0 0.0 0.0 0.0 0.0 0.0 0.0 0.0 0.0 0.0 0.0 0.0 0.0 0.0 0.0 0.0 0.0 0.0 0.0 0.0 0.0 0.0 0.0 0.0 0.0 0.0 0.0 0.0 0.0 0.0 0.0 0.0 0.0 0.0 0.0 0.0 0.0
0.43489999999999995 71.23580000000001 0.7478 0.430059 35.715198 3.067631 -4.754519 6.428656 -81.333856 5.863253 0.294977 81.262566 5.344179 19.627906 62.17574 -20.271139 -6.525448 -98.621887 -0.002032 0.0 -0.004263 0.003597 0.0 0.001563 -6.041951 25.599264 7.233904 61.124681 -3.368455 19.100124 177.35745 10.974739 81.819133 169.831892 -19.020849 143.500103 -5.432991 5.265307 1.077273 -137.439733 -40.749482 115.780072 -150.884335 -16.291571 120.979195 -11.825089 35.898008 2.819599 -167.296529 -27.767518 145.261704 3.08764 0.167785 0.367124 -145.120089 0.26771 -179.212587 -153.623871 -16.926884 -176.808672 -79.553947 -51.375608 -77.988472 16.327796 41.546297 7.210658 -3.268924 -26.755853 5.241266 103.833637 -10.766158 166.84334 147.811892 -13.204898 75.941234 0.195822 -29.879648 4.103541 6.843272 6.58931 -1.434881 148.989613 -56.405032 -115.272084 -37.215317 -57.917972 0.64363 172.166639 -36.833534 -109.877402 -89.035342 -81.393061 -59.760084 161.430058 1.326379 -142.402221 145.122092 1.975079 179.749557 -11.864473 33.476859 5.201035 -10.59264 34.89479 -9.100964 81.079931 -54.311477 80.041303 -0.000292 0.001805 0.000375 -31.200215 -56.315258 52.5001 64.580572 8.816689 -97.766065 65.12063 7.344953 2.605058 179.914124 75.747824 0.066187 -140.661527 77.37843 0.0 28.74114 40.862237 -151.416237 -122.475019 47.660017 -149.660917
0.6148 70.8727 0.8541 0.451111 36.232886 3.507984 -7.372139 8.155169 0.745756 3.52492 -7.889022 -0.893033 -3.904316 35.362993 -167.382418 1.946748 36.519763 131.885887 0.004536 0.0 0.000719 -0.001186 -0.0 0.000586 -152.12893 14.113023 157.556245 -49.088815 13.774864 27.532605 -71.760334 -17.564882 -118.490724 62.270415 -68.663728 48.15093 -166.631435 -4.304818 89.771536 -38.885942 -22.793578 8.839163 -27.422043 30.63822 20.1006 15.137177 -10.871981 -2.300178 0.54018 -1.590195 -0.293823 -151.784152 24.96381 137.173032 -4.4e-05 -0.060683 -0.020184 -156.382126 -21.324218 174.351446 -124.850177 -29.038236 -122.621527 22.937851 58.68172 6.559485 155.613745 -4.236247 -161.991584 51.694376 -0.755266 3.046148 150.992159 0.49301 85.411707 1.172525 -26.806155 4.169433 4.034691 3.931679 -0.754592 114.323774 -4.54952 -103.333366 0.327655 0.529688 -0.187412 65.769316 48.403899 -50.658752 103.306437 58.656146 -94.183258 172.017962 -31.386137 -143.846917 72.757858 -72.142107 89.772782 -14.730566 0.856957 4.472823 143.937204 8.265253 140.720029 -2.497434 0.283713 1.897341 0.000352 7.7e-05 -0.000453 -29.224352 -56.630149 -33.817206 -1.544156 75.21508 139.762742 77.183161 66.886674 -162.051995 -0.004963 0.000778 -0.002482 8.551961 5.123261 0.0 -8.727055 49.530294 -129.349757 -128.211572 12.761863 -164.58136
0.6783 70.4863 0.9690000000000001 0.548572 36.623289 3.935634 -4.897944 5.294554 -95.991557 5.049551 1.555082 94.947694 6.368298 21.901702 78.689027 -22.614868 -0.015263 -118.079625 -0.001492 -0.0 0.002788 0.004413 -0.0 -0.00276 2.459728 -18.216294 -3.66992 -112.597338 -19.310722 -164.141078 3.988656 -6.253236 -93.500413 167.3669 -24.989186 142.449931 -167.109389 -4.785014 89.808132 -47.437303 -15.717191 11.284782 12.216377 -21.784791 -5.119519 -159.241245 -14.094566 110.84492 -153.320145 13.628463 138.861253 -163.70305 -6.256296 143.126435 -145.122381 1.975659 -179.748372 -23.674064 -71.727891 -44.750627 0.320804 0.844063 0.298182 -94.633269 -51.95591 -93.974289 157.323671 -17.489052 -164.608429 -136.575689 7.459957 167.783039 86.893622 -19.460671 -78.461762 -94.969621 -79.543671 -76.564378 10.204022 9.661918 -2.404826 163.828376 -66.916592 -106.980783 129.576449 16.761038 -108.785733 -82.166647 -68.139418 -33.688698 -23.904631 -61.333677 -1.400609 1.508907 12.597974 -2.277221 145.123476 1.975739 179.748199 -11.510617 22.801423 6.381449 163.034514 73.432545 150.721056 148.888296 13.083575 142.600758 -179.991073 75.749501 -0.009211 164.33797 14.02717 -47.004101 -67.973929 33.055253 0.381427 150.10967 31.092922 -64.59445 179.994545 75.749281 0.005628 -139.057481 78.071266 -0.0 26.09562 36.277005 -126.039454 -162.849285 43.644587 -114.041093
0.8484 70.1584 1.1343 0.123769 36.83857 3.949648 -4.858069 6.044446 -77.10813 6.079901 -0.42238 76.130627 -3.874696 35.465719 -168.813379 0.590848 35.567538 130.395554 0.000865 -0.0 -0.002149 0.00063 0.0 0.00356 -159.221524 -48.72492 170.56774 -26.058479 19.820366 -22.666756 67.053581 -20.2695 -46.580384 -173.439561 31.041384 143.417861 90.436598 -50.939707 38.666005 -137.622527 18.234098 100.057635 12.561748 -22.428347 -5.205167 12.830426 1.912531 -1.024977 -159.365563 -2.685453 142.597375 -1.384868 12.596779 2.559333 -145.122847 2.055797 -179.77447 11.046404 13.767613 -7.370457 -152.695066 39.283855 -147.937029 -19.866471 -35.124983 -21.006314 85.537415 68.182677 -88.688943 96.506623 16.692865 -88.877552 90.709076 15.768206 109.806631 -56.295027 -77.829089 -39.519694 92.209762 38.141531 -52.469119 131.76181 -19.980937 -77.552802 151.353919 -17.158619 -121.132118 177.288337 -43.418665 -115.185533 158.521787 -0.192348 -142.144491 18.248653 42.123918 -14.877704 -0.002965 1.771178 -0.557889 141.96657 -80.961162 164.265889 144.162333 8.940036 140.921303 -16.26629 41.604118 -5.889423 179.998505 75.748773 0.001023 163.202409 11.550204 -180.0 -22.996911 -75.11694 -93.650858 -8.773114 34.903799 -86.541194 -0.005042 0.000869 -0.003782 8.704941 5.840185 -0.719206 -4.537431 38.374743 -31.455024 -177.810382 -27.613578 -82.787044
